<?xml version="1.0" encoding="UTF-8" standalone="no"?>
<!-- Generator: Adobe Illustrator 22.0.1, SVG Export Plug-In . SVG Version: 6.00 Build 0)  -->

<svg
   version="1.1"
   id="Layer_1"
   x="0px"
   y="0px"
   viewBox="0 0 275.5 241.6"
   style="enable-background:new 0 0 841.9 595.3;"
   xml:space="preserve"
   sodipodi:docname="jglogo.svg"
   inkscape:version="1.2.2 (732a01da63, 2022-12-09)"
   xmlns:inkscape="http://www.inkscape.org/namespaces/inkscape"
   xmlns:sodipodi="http://sodipodi.sourceforge.net/DTD/sodipodi-0.dtd"
   xmlns="http://www.w3.org/2000/svg"
   xmlns:svg="http://www.w3.org/2000/svg"><defs
   id="defs34" /><sodipodi:namedview
   id="namedview32"
   pagecolor="#505050"
   bordercolor="#eeeeee"
   borderopacity="1"
   inkscape:showpageshadow="0"
   inkscape:pageopacity="0"
   inkscape:pagecheckerboard="0"
   inkscape:deskcolor="#505050"
   showgrid="false"
   inkscape:zoom="1.4160928"
   inkscape:cx="275.40568"
   inkscape:cy="242.56885"
   inkscape:window-width="1920"
   inkscape:window-height="1001"
   inkscape:window-x="2391"
   inkscape:window-y="-9"
   inkscape:window-maximized="1"
   inkscape:current-layer="Layer_1" />
<style
   type="text/css"
   id="style19">
	.st0{fill:none;stroke:#1B75BC;stroke-width:3;stroke-miterlimit:10;}
	.st1{fill:#1B75BC;}
	.st2{fill:#4BC6E4;stroke:#1B75BC;stroke-miterlimit:10;}
</style>
<path
   class="st0"
   d="M 262,240.1 H 13.5 c -6.6,0 -12,-5.4 -12,-12 V 13.5 c 0,-6.6 5.4,-12 12,-12 H 262 c 6.6,0 12,5.4 12,12 v 214.6 c 0,6.6 -5.4,12 -12,12 z"
   id="path21"
   style="stroke:#424874;stroke-opacity:1" />
<path
   class="st1"
   d="m 161.8,117.9 v 25.6 h 8.6 c 27.3,0 41,0.3 41,0.9 0,2.7 -2.5,7.7 -7.4,15.1 -3.2,5.1 -7.8,10.2 -13.8,15.1 -6,4.9 -11.9,8.7 -17.8,11.4 -7.2,3.2 -15.9,5.2 -26.2,6 h -4.3 c -3.4,0 -6.8,-0.2 -10,-0.6 l -21.7,21.5 c 9.9,3.3 20.4,5 31.7,5.2 15,0 29.3,-3.1 43,-9.4 16.7,-7.8 30,-19.1 40,-33.9 10,-14.8 15.8,-31.8 17.5,-50.9 l 0.6,-6 z"
   id="path23"
   style="fill:#424874;fill-opacity:1" />
<g
   id="g27"
   transform="translate(-218.7,-40.1)"
   style="fill:#424874;fill-opacity:1">
	<path
   class="st1"
   d="M 310.2,216.6 C 296.4,202.8 289,186.3 288.3,167.1 v -3.4 c 0,-17.1 5.4,-32.3 16.1,-45.7 10.7,-13.4 24.6,-22.1 41.7,-26.3 4.4,-0.9 9.5,-1.4 15.4,-1.4 7.2,0 13.7,0.7 19.3,2 12.1,3.4 23.1,9.6 33,18.5 l 5.1,4.8 c 4,-4.2 10,-10.2 17.9,-18.2 l -4.6,-4.6 C 418.4,78.8 401.3,69.7 381,65.5 c -4.7,-0.9 -10.5,-1.4 -17.4,-1.4 -9.1,0 -16.9,0.8 -23.3,2.3 -22,5.1 -40.5,16.5 -55.5,34.1 -15,17.6 -22.5,38.9 -22.5,63.7 0,10.6 1.2,20.1 3.7,28.5 2.9,9.7 7.2,18.7 12.8,26.9 h 34.6 c -1.1,-0.9 -2.2,-1.9 -3.2,-3 z"
   id="path25"
   style="fill:#424874;fill-opacity:1" />
</g>
<path
   class="st2"
   d="m 103.1,72.4 0.2,101.3 c 0,5.2 -4.3,9.5 -9.499996,9.5 L 39,183.7 12.5,210.2 93.800004,209.7 C 113.6,209.7 129.8,193.6 129.8,173.7 L 129.6,72.4 Z"
   id="path29"
   style="fill:#6bd425;fill-opacity:1;stroke:#424874;stroke-opacity:1" />
</svg>
